<svg width="132" height="132" viewBox="0 0 132 132" fill="none" xmlns="http://www.w3.org/2000/svg">
  <defs>
    <linearGradient id="predex-blue" x1="16" y1="22" x2="44" y2="114" gradientUnits="userSpaceOnUse">
      <stop stop-color="#2F7EDA"/>
      <stop offset="1" stop-color="#2364BC"/>
    </linearGradient>
    <linearGradient id="predex-purple" x1="50" y1="8" x2="82" y2="98" gradientUnits="userSpaceOnUse">
      <stop stop-color="#8C60F3"/>
      <stop offset="1" stop-color="#6A3FE0"/>
    </linearGradient>
    <linearGradient id="predex-green" x1="18" y1="102" x2="106" y2="122" gradientUnits="userSpaceOnUse">
      <stop stop-color="#51BC8F"/>
      <stop offset="1" stop-color="#34B684"/>
    </linearGradient>
  </defs>

  <path d="M17 46.5L42 28V74H17V46.5Z" fill="url(#predex-blue)"/>
  <path d="M90 28L115 46.5V74H90V28Z" fill="url(#predex-blue)"/>
  <path d="M48 16L62 5V74H48V16Z" fill="url(#predex-purple)"/>
  <path d="M69 5L83 16V74H69V5Z" fill="url(#predex-purple)"/>

  <rect x="45" y="48" width="41" height="5" fill="white"/>
  <rect x="15" y="76" width="102" height="5" fill="white"/>
  <rect x="15" y="98" width="102" height="5" fill="white"/>
  <rect x="45" y="16" width="3.5" height="87" fill="white"/>
  <rect x="64" y="5" width="3.5" height="98" fill="white"/>
  <rect x="83" y="16" width="3.5" height="87" fill="white"/>

  <rect x="17" y="108" width="25" height="14" fill="url(#predex-green)"/>
  <rect x="50" y="108" width="13" height="14" fill="url(#predex-green)"/>
  <rect x="69" y="108" width="13" height="14" fill="url(#predex-green)"/>
  <rect x="90" y="108" width="25" height="14" fill="url(#predex-green)"/>
</svg>
